<?xml version="1.0" standalone="no"?>
<!DOCTYPE svg PUBLIC "-//W3C//DTD SVG 20010904//EN"
 "http://www.w3.org/TR/2001/REC-SVG-20010904/DTD/svg10.dtd">
<svg version="1.0" xmlns="http://www.w3.org/2000/svg"
 width="205.000000pt" height="205.000000pt" viewBox="0 0 205.000000 205.000000"
 preserveAspectRatio="xMidYMid meet">
<metadata>
Created by potrace 1.14, written by Peter Selinger 2001-2017
</metadata>
<g transform="translate(0.000000,205.000000) scale(0.100000,-0.100000)"
fill="#000000" stroke="none">
<path d="M950 2025 c-59 -19 -123 -74 -150 -129 -65 -135 -11 -285 126 -352
47 -23 64 -26 117 -22 72 6 129 32 173 80 53 56 68 95 68 178 1 64 -4 82 -26
120 -30 52 -59 80 -110 108 -49 28 -141 36 -198 17z"/>
<path d="M629 1871 c-41 -10 -95 -51 -115 -89 -25 -47 -25 -137 1 -177 41 -63
98 -95 170 -95 35 0 115 34 115 49 0 6 -13 31 -30 57 -35 56 -52 132 -44 198
7 65 -14 77 -97 57z"/>
<path d="M1337 1873 c-3 -4 -3 -37 -2 -72 4 -76 -14 -141 -54 -198 l-30 -42
25 -20 c29 -23 101 -36 141 -27 48 12 102 54 124 98 43 85 5 204 -79 244 -42
20 -117 30 -125 17z"/>
<path d="M228 1649 c-15 -8 -18 -24 -18 -80 0 -54 3 -68 13 -63 8 5 8 2 -2 -9
-7 -9 -9 -17 -5 -17 5 0 9 -15 9 -32 0 -18 5 -32 11 -31 6 1 11 -4 11 -12 0
-8 -5 -11 -10 -8 -6 4 -7 -5 -3 -23 10 -47 16 -105 15 -173 0 -37 6 -70 13
-79 10 -12 10 -14 1 -8 -7 4 -13 2 -13 -3 0 -6 3 -11 8 -11 4 0 7 -19 8 -42 2
-100 3 -110 19 -104 12 4 13 2 4 -12 -8 -13 -8 -30 2 -62 14 -51 13 -45 23
-87 4 -18 12 -33 18 -33 6 0 7 8 3 18 -5 13 -4 14 6 5 10 -10 9 -16 -1 -28
-20 -24 -3 -31 22 -9 l23 19 -22 -26 c-20 -22 -21 -27 -8 -46 8 -11 11 -23 8
-27 -3 -3 0 -6 7 -6 7 0 10 -3 7 -6 -8 -9 34 -85 43 -79 4 3 7 -3 6 -13 0 -9
4 -16 11 -15 7 2 10 -3 7 -10 -6 -17 69 -123 85 -119 7 1 10 -2 6 -8 -9 -14
14 -42 28 -33 5 3 7 2 4 -4 -7 -11 81 -100 95 -96 4 2 8 -3 8 -11 0 -22 21
-31 32 -15 8 11 9 10 4 -3 -6 -19 25 -43 39 -30 5 4 5 2 1 -5 -8 -15 50 -57
65 -47 7 4 9 3 5 -4 -10 -17 13 -25 32 -10 15 12 16 11 4 -4 -11 -14 -10 -18
7 -28 18 -9 20 -8 15 7 -3 11 0 10 7 -3 13 -25 56 -47 71 -38 6 4 8 2 5 -3 -8
-13 20 -26 35 -16 6 3 8 1 5 -4 -11 -18 32 -22 61 -7 15 8 33 14 40 14 6 0 12
5 12 11 0 5 -4 8 -8 5 -5 -3 -9 1 -9 9 0 13 3 13 18 -1 9 -8 19 -11 20 -7 2 5
25 19 52 31 26 12 47 27 47 32 0 6 5 9 12 8 7 -2 12 2 13 9 0 6 4 15 9 20 5 5
6 2 1 -6 -5 -9 -3 -12 6 -9 8 3 13 11 11 17 -1 7 2 10 7 7 5 -4 16 1 24 9 9 8
20 15 24 15 14 0 58 53 55 66 -1 6 6 18 15 25 16 13 17 12 4 -4 -8 -9 -11 -20
-8 -24 9 -8 38 17 31 28 -3 5 1 9 9 9 7 0 22 10 33 23 60 70 94 117 94 126 0
6 4 11 9 11 5 0 21 21 36 46 23 38 25 48 13 62 -12 15 -11 16 4 3 16 -12 21
-7 49 54 17 38 33 75 34 84 2 9 4 17 5 19 2 1 3 5 4 10 1 4 7 17 15 30 10 19
10 26 0 38 -10 12 -10 15 1 12 8 -2 15 2 15 7 1 6 4 17 8 25 6 15 26 143 26
170 0 8 3 28 7 44 6 23 4 27 -7 21 -11 -7 -12 -6 -3 6 13 16 23 100 12 93 -5
-3 -8 0 -8 5 0 6 5 11 11 11 6 0 9 10 7 23 -2 12 -9 21 -16 19 -8 -1 -11 2 -7
8 3 6 10 8 14 6 8 -5 12 25 15 96 0 20 4 34 9 31 4 -2 8 11 9 29 0 18 2 40 3
48 1 8 -4 21 -9 29 -9 12 -8 13 3 6 11 -6 13 -4 8 8 -3 10 -2 17 3 17 6 0 10
18 10 39 0 47 -28 88 -54 78 -10 -4 -14 -11 -11 -17 4 -6 -1 -7 -11 -3 -13 5
-16 3 -11 -10 3 -9 3 -16 -1 -14 -4 1 -7 -3 -7 -8 0 -5 2 -9 5 -8 3 1 7 -8 7
-20 2 -20 1 -20 -8 -4 -6 9 -14 17 -19 17 -14 0 -36 -79 -46 -165 -3 -22 -6
-48 -8 -58 -3 -11 0 -15 7 -10 9 5 9 3 1 -8 -6 -8 -10 -22 -9 -31 2 -10 -2
-21 -8 -25 -7 -4 -3 -9 9 -14 13 -5 14 -8 4 -8 -12 -1 -19 -24 -29 -98 -8 -54
-14 -110 -14 -125 0 -16 -5 -28 -9 -28 -5 0 -8 -6 -7 -12 1 -7 -3 -26 -9 -41
-14 -34 -15 -40 -4 -33 5 3 9 -1 9 -9 0 -11 -3 -12 -14 -3 -11 9 -15 7 -20
-10 -3 -12 -10 -22 -17 -22 -6 0 -4 -5 4 -10 13 -8 12 -10 -2 -10 -10 0 -23
-8 -29 -18 -8 -13 -20 -17 -35 -14 -13 2 -32 -2 -42 -9 -15 -12 -16 -12 -4 2
13 18 6 53 -9 43 -10 -6 -8 17 1 26 3 3 11 18 18 34 11 25 11 28 0 20 -8 -5
-5 -1 7 10 11 10 19 23 18 27 -2 5 2 9 8 9 6 0 8 7 5 16 -3 8 -2 12 4 9 6 -3
10 1 10 9 0 21 2 27 16 55 16 30 0 86 -17 60 -7 -11 -9 -11 -9 -1 0 18 -38 -2
-69 -37 -42 -47 -108 -145 -139 -206 -62 -121 -64 -128 -50 -119 7 4 5 -2 -5
-13 -9 -11 -14 -23 -10 -26 3 -4 1 -7 -6 -7 -8 0 -11 -8 -8 -20 3 -11 2 -18
-3 -15 -7 5 -56 -160 -54 -182 1 -7 -2 -13 -7 -13 -5 0 -9 -8 -9 -18 0 -10 -5
-23 -12 -30 -7 -7 -9 -12 -4 -12 4 0 0 -7 -9 -16 -14 -15 -14 -17 2 -30 17
-12 16 -13 -5 -7 -20 5 -32 -10 -14 -20 4 -2 2 -3 -5 -1 -6 1 -19 -7 -30 -18
-12 -15 -13 -19 -3 -14 8 4 5 -1 -8 -11 -18 -15 -20 -21 -10 -31 9 -9 9 -15
-1 -25 -10 -10 -11 -9 -6 4 4 10 1 20 -6 25 -7 4 -14 3 -16 -3 -3 -7 -21 6
-41 27 -30 32 -39 37 -52 27 -13 -10 -13 -10 -2 4 11 14 8 26 -17 75 -16 33
-35 78 -42 102 -7 23 -15 42 -19 42 -4 0 -6 10 -5 23 2 19 -13 73 -32 117 -3
8 -7 17 -8 20 -11 47 -17 60 -24 55 -5 -3 -7 5 -3 17 3 14 2 19 -6 14 -8 -5
-12 0 -12 13 0 12 -5 21 -12 21 -6 0 -9 3 -5 6 6 6 -22 67 -51 112 -12 19 -17
20 -31 10 -14 -12 -14 -11 -3 4 12 15 9 23 -19 63 -18 25 -39 45 -46 45 -8 0
-12 4 -9 9 7 10 -22 37 -50 45 -31 9 -48 -16 -40 -59 6 -31 14 -39 37 -37 3 1
6 -6 6 -13 0 -12 -3 -12 -16 -2 -12 10 -14 9 -8 -6 4 -10 7 -21 7 -23 0 -3 5
-2 12 2 7 4 8 3 4 -5 -11 -17 13 -44 29 -31 8 7 12 5 12 -5 0 -8 -4 -12 -9 -9
-11 7 -10 -4 4 -42 9 -25 9 -39 0 -59 -16 -35 -63 -35 -87 1 -12 19 -20 23
-29 15 -9 -8 -13 -7 -13 4 0 8 4 12 9 9 4 -3 8 0 8 5 0 6 -4 11 -8 11 -16 0
-56 146 -68 250 -3 24 -10 51 -17 59 -9 12 -9 13 1 7 18 -11 15 5 -5 21 -10 8
-12 11 -5 8 11 -6 12 4 7 51 -6 53 -12 90 -18 119 -2 6 -7 16 -11 24 -6 10 -5
12 3 7 9 -6 10 0 6 21 -13 56 -14 57 -33 42 -16 -13 -16 -12 -1 6 16 20 15 60
-2 50 -5 -3 -6 2 -2 11 5 13 2 16 -9 11 -12 -4 -14 -1 -11 13 3 11 -4 24 -18
34 -27 19 -28 19 -51 5z m53 -26 c13 -16 12 -17 -3 -4 -10 7 -18 15 -18 17 0
8 8 3 21 -13z m1546 -15 c0 -13 -1 -17 -4 -10 -3 6 -10 9 -16 5 -7 -4 -6 1 2
10 17 21 17 21 18 -5z m-1566 -5 c13 -16 12 -17 -3 -4 -10 7 -18 15 -18 17 0
8 8 3 21 -13z m-20 -20 c13 -16 12 -17 -3 -4 -10 7 -18 15 -18 17 0 8 8 3 21
-13z m1560 0 c13 -16 12 -17 -3 -4 -10 7 -18 15 -18 17 0 8 8 3 21 -13z
m-1540 -26 c-10 -9 -11 -8 -5 6 3 10 9 15 12 12 3 -3 0 -11 -7 -18z m1560 0
c-10 -9 -11 -8 -5 6 3 10 9 15 12 12 3 -3 0 -11 -7 -18z m-1531 -10 c0 -2 -8
-11 -18 -20 -15 -14 -19 -15 -19 -2 0 8 4 12 8 9 4 -2 10 0 14 6 6 10 15 14
15 7z m1457 -10 c0 -8 -6 -14 -14 -14 -9 0 -10 4 -2 14 6 7 12 13 14 13 1 0 2
-6 2 -13z m54 -14 c12 -16 12 -17 -2 -6 -9 7 -20 9 -24 5 -5 -4 -5 -1 -1 6 9
16 11 15 27 -5z m-1513 -23 c-7 -10 -14 -17 -17 -15 -4 4 18 35 25 35 2 0 -1
-9 -8 -20z m32 -4 c0 -2 -8 -10 -17 -17 -16 -13 -17 -12 -4 4 13 16 21 21 21
13z m1408 -36 c-7 -10 -14 -17 -17 -15 -4 4 18 35 25 35 2 0 -1 -9 -8 -20z
m77 2 c-3 -3 -11 0 -18 7 -9 10 -8 11 6 5 10 -3 15 -9 12 -12z m-1470 -32 c3
-6 -1 -7 -9 -4 -18 7 -21 14 -7 14 6 0 13 -4 16 -10z m1435 -18 c0 -5 -7 -9
-15 -9 -8 0 -12 4 -9 9 3 4 9 8 15 8 5 0 9 -4 9 -8z m-40 -6 c0 -2 -8 -10 -17
-17 -16 -13 -17 -12 -4 4 13 16 21 21 21 13z m-1445 -14 c-3 -3 0 -11 6 -19
17 -20 5 -16 -14 5 -15 16 -15 19 -2 19 8 0 13 -3 10 -5z m1462 -17 c0 -8 -3
-13 -5 -10 -3 3 -12 -1 -21 -7 -10 -8 -9 -4 3 10 23 26 23 26 23 7z m-1486
-12 c13 -16 12 -17 -3 -4 -10 7 -18 15 -18 17 0 8 8 3 21 -13z m1549 -7 c0 -2
-7 -7 -16 -10 -8 -3 -12 -2 -9 4 6 10 25 14 25 6z m-1499 -23 c13 -16 12 -17
-3 -4 -10 7 -18 15 -18 17 0 8 8 3 21 -13z m1436 2 c0 -8 -3 -13 -5 -10 -3 3
-15 -3 -26 -12 -15 -14 -18 -14 -8 -2 6 9 8 20 4 24 -4 5 -2 5 5 1 6 -3 14 -2
18 4 9 14 12 13 12 -5z m-1486 -18 c-10 -9 -11 -8 -5 6 3 10 9 15 12 12 3 -3
0 -11 -7 -18z m99 19 c0 -2 -8 -10 -17 -17 -16 -13 -17 -12 -4 4 13 16 21 21
21 13z m-60 -30 c0 -2 -7 -7 -16 -10 -8 -3 -12 -2 -9 4 6 10 25 14 25 6z
m1447 -11 c0 -8 -3 -13 -5 -10 -3 3 -12 -1 -21 -7 -10 -8 -9 -4 3 10 23 26 23
26 23 7z m-1393 -7 c-4 -5 -9 -7 -12 -4 -3 3 -12 0 -21 -7 -14 -10 -14 -10 -4
4 13 16 46 23 37 7z m-66 -28 c-7 -10 -14 -17 -17 -15 -4 4 18 35 25 35 2 0
-1 -9 -8 -20z m32 -4 c0 -2 -8 -10 -17 -17 -16 -13 -17 -12 -4 4 13 16 21 21
21 13z m1410 -21 c14 -19 14 -19 -2 -6 -10 7 -18 18 -18 24 0 6 1 8 3 6 1 -2
9 -13 17 -24z m39 2 c8 -10 7 -14 -2 -14 -8 0 -14 6 -14 14 0 7 1 13 2 13 2 0
8 -6 14 -13z m-1429 -1 c0 -2 -8 -10 -17 -17 -16 -13 -17 -12 -4 4 13 16 21
21 21 13z m1376 -28 c12 -14 13 -18 3 -10 -9 6 -18 10 -21 7 -2 -3 -5 2 -5 10
0 19 0 19 23 -7z m-1425 -1 c-6 -8 -9 -16 -6 -19 3 -2 -2 -5 -10 -5 -13 0 -13
3 2 19 19 21 31 25 14 5z m69 9 c0 -2 -8 -10 -17 -17 -16 -13 -17 -12 -4 4 13
16 21 21 21 13z m1348 -51 c-3 -3 -9 2 -12 12 -6 14 -5 15 5 6 7 -7 10 -15 7
-18z m-1421 -22 c0 -9 -4 -10 -14 -2 -7 6 -13 12 -13 14 0 1 6 2 13 2 8 0 14
-6 14 -14z m43 1 c-6 -6 -8 -14 -5 -17 3 -4 2 -5 -2 -2 -3 3 -13 -1 -22 -7
-11 -9 -10 -6 2 9 14 16 15 22 5 26 -7 3 -3 4 9 4 15 -1 19 -5 13 -13z m50 11
c0 -1 -10 -10 -22 -21 -14 -12 -18 -13 -10 -3 6 9 10 18 7 21 -3 2 2 5 10 5 8
0 15 -1 15 -2z m1317 -23 c-10 -10 -15 -21 -12 -24 3 -2 -2 -5 -10 -5 -10 0
-12 4 -5 12 5 7 6 16 2 20 -4 5 -2 5 5 1 6 -3 14 -2 18 4 3 5 9 10 12 10 3 0
-1 -8 -10 -18z m81 9 c16 12 16 12 0 -6 -18 -19 -18 -19 -35 0 -17 18 -17 18
0 6 14 -11 20 -11 35 0z m-1204 -9 c3 -5 -1 -9 -9 -9 -8 0 -15 4 -15 9 0 4 4
8 9 8 6 0 12 -4 15 -8z m951 -20 c-3 -3 0 -10 5 -17 7 -8 5 -12 -4 -12 -8 0
-13 7 -11 16 1 9 -3 23 -9 31 -10 13 -9 13 7 1 9 -8 15 -16 12 -19z m203 5 c8
-10 6 -13 -11 -14 -12 0 -16 1 -9 4 6 3 10 9 6 14 -8 14 2 11 14 -4z m-233 -7
c3 -6 -1 -7 -9 -4 -18 7 -21 14 -7 14 6 0 13 -4 16 -10z m-1154 -14 c-7 -8
-20 -13 -29 -11 -9 1 -24 -3 -32 -9 -13 -9 -13 -9 -2 6 7 9 22 15 32 13 11 -2
22 0 25 6 4 5 9 9 12 9 3 0 0 -6 -6 -14z m43 -16 c-6 -6 -10 -3 -10 10 0 13 4
16 10 10 7 -7 7 -13 0 -20z m162 4 c1 -9 0 -13 -4 -10 -3 4 -7 14 -8 22 -1 9
0 13 4 10 3 -4 7 -14 8 -22z m921 1 c0 -8 -4 -12 -9 -9 -4 3 -8 9 -8 15 0 5 4
9 8 9 5 0 9 -7 9 -15z m-845 -29 c3 3 8 1 12 -4 11 -18 -25 -8 -41 12 -18 21
-18 21 3 3 11 -9 23 -14 26 -11z m1105 17 c-4 -3 -1 -13 6 -22 11 -14 10 -14
-5 -2 -16 12 -16 31 -1 31 4 0 3 -3 0 -7z m43 -7 c-7 -7 -13 -7 -20 0 -6 6 -3
10 10 10 13 0 16 -4 10 -10z m-1463 -9 c0 -8 -6 -14 -14 -14 -9 0 -10 4 -2 14
6 7 12 13 14 13 1 0 2 -6 2 -13z m89 -4 c-2 -3 -6 -3 -9 -1 -3 2 -15 -6 -28
-17 l-24 -20 18 21 c9 11 24 21 32 21 8 0 13 -2 11 -4z m1092 -18 c16 -19 16
-19 -3 -3 -11 8 -28 14 -37 13 -10 -2 -20 0 -23 4 -10 17 46 4 63 -14z m-74
-3 c3 -5 -1 -9 -9 -9 -8 0 -12 4 -9 9 3 4 7 8 9 8 2 0 6 -4 9 -8z m281 -1 c-9
-8 -36 -10 -30 -2 2 4 11 8 20 8 8 0 13 -3 10 -6z m-1308 -16 c0 -8 -4 -12 -9
-9 -5 3 -6 10 -3 15 9 13 12 11 12 -6z m1364 -2 c13 -16 12 -17 -3 -4 -17 13
-22 21 -14 21 2 0 10 -8 17 -17z m-1100 -6 c-6 -8 -9 -16 -6 -19 3 -2 -2 -5
-10 -5 -13 0 -13 3 2 19 19 21 31 25 14 5z m1079 -12 c14 -19 14 -19 -2 -6
-10 7 -18 18 -18 24 0 6 1 8 3 6 1 -2 9 -13 17 -24z m-1359 -2 c13 -16 12 -17
-3 -4 -10 7 -18 15 -18 17 0 8 8 3 21 -13z m1034 -64 c0 -14 7 -34 15 -45 14
-18 14 -18 -6 -1 -15 12 -21 27 -19 47 1 16 -4 35 -11 41 -8 6 -14 16 -14 22
0 6 8 0 17 -13 10 -14 18 -37 18 -51z m-1049 39 c12 -14 13 -18 3 -10 -9 6
-18 10 -21 7 -2 -3 -5 2 -5 10 0 19 0 19 23 -7z m51 7 c0 -8 -4 -12 -9 -9 -5
3 -6 10 -3 15 9 13 12 11 12 -6z m1063 11 c0 -2 -8 -10 -17 -17 -16 -13 -17
-12 -4 4 13 16 21 21 21 13z m246 -18 c12 -14 13 -18 3 -10 -9 6 -18 10 -21 7
-2 -3 -5 2 -5 10 0 19 0 19 23 -7z m-1015 -5 c13 -16 12 -17 -3 -4 -10 7 -18
15 -18 17 0 8 8 3 21 -13z m670 -10 c13 -16 12 -17 -3 -4 -17 13 -22 21 -14
21 2 0 10 -8 17 -17z m280 0 c13 -16 12 -17 -3 -4 -17 13 -22 21 -14 21 2 0
10 -8 17 -17z m-1250 -10 c13 -16 12 -17 -3 -4 -10 7 -18 15 -18 17 0 8 8 3
21 -13z m301 -7 c3 3 8 1 12 -4 11 -18 -25 -8 -41 12 -18 21 -18 21 3 3 11 -9
23 -14 26 -11z m743 6 c-3 -3 -11 0 -18 7 -9 10 -8 11 6 5 10 -3 15 -9 12 -12z
m322 1 c0 -9 -4 -10 -14 -2 -7 6 -13 12 -13 14 0 1 6 2 13 2 8 0 14 -6 14 -14z
m-1401 -5 c5 4 6 3 2 -2 -4 -5 -2 -16 4 -25 10 -12 7 -12 -8 2 -11 9 -23 15
-26 12 -2 -3 -5 2 -5 10 0 10 4 12 12 5 7 -5 16 -6 21 -2z m1356 -3 c3 0 9 -3
13 -7 4 -3 0 -5 -9 -4 -9 1 -22 8 -29 16 -10 10 -9 11 3 4 8 -5 18 -9 22 -9z
m-1060 -15 c11 -12 11 -12 -3 -2 -8 6 -27 9 -42 6 -15 -2 -27 -1 -27 4 0 14
58 8 72 -8z m1029 -7 c13 -16 12 -17 -3 -4 -17 13 -22 21 -14 21 2 0 10 -8 17
-17z m-1271 3 c0 -2 -8 -10 -17 -17 -16 -13 -17 -12 -4 4 13 16 21 21 21 13z
m-64 -28 c12 -14 13 -18 3 -10 -9 6 -18 10 -21 7 -2 -3 -5 2 -5 10 0 19 0 19
23 -7z m274 18 c0 -2 -8 -10 -17 -17 -16 -13 -17 -12 -4 4 13 16 21 21 21 13z
m94 -25 c-2 -3 -12 3 -22 13 -16 17 -16 18 5 5 12 -7 20 -15 17 -18z m960 0
c-2 -3 -12 3 -22 13 -16 17 -16 18 5 5 12 -7 20 -15 17 -18z m-1244 15 c0 -2
-8 -10 -17 -17 -16 -13 -17 -12 -4 4 13 16 21 21 21 13z m243 -14 c15 -16 15
-19 2 -19 -8 0 -13 3 -10 5 3 3 0 11 -6 19 -17 20 -5 16 14 -5z m960 0 c15
-16 15 -19 2 -19 -8 0 -13 3 -10 5 3 3 0 11 -6 19 -17 20 -5 16 14 -5z m-989
-10 c2 -4 -4 -8 -14 -8 -10 0 -16 4 -14 8 7 10 21 10 28 0z m710 -23 c-3 -5 1
-9 8 -10 11 0 11 -2 0 -6 -10 -4 -9 -10 5 -27 18 -21 18 -21 -4 -3 -11 10 -20
26 -18 35 1 9 -3 24 -9 32 -10 13 -9 13 6 1 10 -7 15 -17 12 -22z m-998 9 c5
4 6 3 2 -2 -4 -5 -2 -16 4 -25 10 -12 7 -12 -8 2 -11 9 -23 15 -26 12 -2 -3
-5 2 -5 10 0 10 4 12 12 5 7 -5 16 -6 21 -2z m1340 -3 c-1 -8 -5 -17 -8 -21
-5 -4 -4 16 1 34 3 9 9 -1 7 -13z m-961 -4 c3 -5 2 -12 -3 -15 -5 -3 -9 1 -9
9 0 17 3 19 12 6z m580 1 c-3 -3 1 -12 7 -21 10 -12 7 -12 -8 2 -11 9 -24 14
-29 10 -4 -5 -5 -3 -2 3 3 6 13 11 22 11 8 0 13 -3 10 -5z m126 -5 c-6 -8 -9
-16 -6 -19 3 -3 -5 -13 -17 -24 l-23 -19 19 23 c11 12 16 22 11 22 -4 0 -2 7
5 15 7 8 15 15 17 15 3 0 0 -6 -6 -13z m-1036 -17 c-3 -5 -12 -10 -18 -10 -7
0 -6 4 3 10 19 12 23 12 15 0z m45 5 c0 -1 -10 -10 -22 -21 -14 -12 -18 -13
-10 -3 6 9 10 18 7 21 -3 2 2 5 10 5 8 0 15 -1 15 -2z m35 -5 c3 -6 -1 -7 -9
-4 -18 7 -21 14 -7 14 6 0 13 -4 16 -10z m190 2 c-3 -3 0 -11 6 -19 17 -20 5
-16 -14 5 -15 16 -15 19 -2 19 8 0 13 -3 10 -5z m735 3 c0 -2 -6 -8 -13 -14
-10 -8 -14 -7 -14 2 0 8 6 14 14 14 7 0 13 -1 13 -2z m-1046 -44 c-2 -2 -10 1
-17 7 -8 7 -16 10 -19 7 -2 -3 -5 1 -5 9 0 12 5 11 23 -2 12 -9 20 -19 18 -21z
m942 17 c12 -14 13 -18 3 -10 -9 6 -18 10 -21 7 -2 -3 -5 2 -5 10 0 19 0 19
23 -7z m191 7 c0 -8 -3 -13 -5 -10 -3 3 -12 -1 -21 -7 -10 -8 -9 -4 3 10 23
26 23 26 23 7z m63 12 c0 -2 -8 -11 -18 -20 -15 -14 -19 -15 -19 -2 0 8 4 12
8 9 4 -2 10 0 14 6 6 10 15 14 15 7z m75 -35 c-3 -3 3 -15 12 -26 14 -15 14
-18 2 -8 -9 6 -18 9 -22 6 -3 -3 -4 2 -2 13 1 10 -5 27 -14 38 -16 20 -16 20
7 1 12 -11 20 -21 17 -24z m-1165 24 c0 -2 -8 -10 -17 -17 -16 -13 -17 -12 -4
4 13 16 21 21 21 13z m182 -14 c11 -15 11 -15 -2 -5 -19 14 -42 12 -66 -7 -18
-14 -18 -14 -2 6 22 25 53 28 70 6z m1072 10 c3 -5 -1 -9 -9 -9 -8 0 -15 4
-15 9 0 4 4 8 9 8 6 0 12 -4 15 -8z m-1243 -25 c-6 -8 -9 -16 -6 -19 3 -3 -3
-11 -12 -19 -16 -13 -17 -12 -4 4 7 9 10 17 6 17 -4 0 -2 7 5 15 7 8 15 15 17
15 3 0 0 -6 -6 -13z m276 -1 c-1 -5 3 -10 10 -11 17 0 25 -12 8 -12 -8 0 -22
8 -30 17 -13 14 -13 17 -1 17 8 0 14 -5 13 -11z m602 -20 c-3 -3 -11 5 -18 17
-13 21 -12 21 5 5 10 -10 16 -20 13 -22z m76 14 c-10 -11 -20 -18 -23 -15 -3
3 -15 -3 -26 -12 -21 -18 -21 -18 -2 4 10 13 22 20 26 18 4 -3 13 2 20 10 7 8
15 15 18 15 3 0 -3 -9 -13 -20z m135 16 c0 -2 -8 -10 -17 -17 -16 -13 -17 -12
-4 4 13 16 21 21 21 13z m35 -6 c3 -6 -1 -7 -9 -4 -18 7 -21 14 -7 14 6 0 13
-4 16 -10z m-1189 -15 c-1 -8 -5 -17 -8 -21 -5 -4 -4 16 1 34 3 9 9 -1 7 -13z
m120 0 c-1 -8 -5 -17 -8 -21 -5 -4 -4 16 1 34 3 9 9 -1 7 -13z m80 -5 c0 -12
-4 -16 -9 -11 -5 5 -6 14 -3 20 10 15 12 14 12 -9z m682 -5 c-3 -3 -9 2 -12
12 -6 14 -5 15 5 6 7 -7 10 -15 7 -18z m192 10 c-6 -8 -9 -20 -5 -27 4 -7 0
-5 -8 4 -11 14 -16 15 -27 5 -12 -10 -12 -9 -1 5 7 10 17 16 21 13 5 -3 11 -1
15 5 3 5 9 10 12 10 3 0 0 -7 -7 -15z m204 -15 c-6 -6 -10 -3 -10 10 0 13 4
16 10 10 7 -7 7 -13 0 -20z m-1043 -3 c-10 -9 -11 -8 -5 6 3 10 9 15 12 12 3
-3 0 -11 -7 -18z m55 -5 c-17 -16 -18 -16 -5 5 7 12 15 20 18 17 3 -2 -3 -12
-13 -22z m828 12 c3 -8 2 -12 -4 -9 -6 3 -10 10 -10 16 0 14 7 11 14 -7z m66
-9 c14 -19 14 -19 -2 -6 -10 7 -18 18 -18 24 0 6 1 8 3 6 1 -2 9 -13 17 -24z
m-1160 -8 c0 -2 -8 -11 -18 -20 -15 -14 -19 -15 -19 -2 0 8 4 12 8 9 4 -2 10
0 14 6 6 10 15 14 15 7z m50 -12 c-7 -8 -17 -15 -23 -15 -6 0 -2 7 9 15 25 19
30 19 14 0z m80 11 c0 -2 -7 -7 -16 -10 -8 -3 -12 -2 -9 4 6 10 25 14 25 6z
m42 -11 c2 3 5 -2 5 -10 0 -19 0 -19 -23 7 -12 14 -13 18 -3 10 9 -6 18 -10
21 -7z m68 12 c0 -2 -8 -11 -18 -20 -15 -14 -19 -15 -19 -2 0 8 4 12 8 9 4 -2
10 0 14 6 6 10 15 14 15 7z m44 -18 c-10 -12 -18 -24 -17 -28 1 -3 0 -8 -2 -9
-2 -2 -3 3 -1 11 2 16 25 47 34 47 3 0 -3 -9 -14 -21z m71 -17 c-3 -3 3 -15
12 -26 14 -15 14 -18 2 -8 -9 6 -18 9 -22 6 -3 -3 -4 2 -2 13 1 10 -5 27 -14
38 -16 20 -16 20 7 1 12 -11 20 -21 17 -24z m505 34 c0 -2 -8 -10 -17 -17 -16
-13 -17 -12 -4 4 13 16 21 21 21 13z m117 -9 c0 -8 -6 -14 -14 -14 -9 0 -10 4
-2 14 6 7 12 13 14 13 1 0 2 -6 2 -13z m177 -16 c-2 -3 -12 3 -22 13 -16 17
-16 18 5 5 12 -7 20 -15 17 -18z m-1073 6 c-6 -8 -9 -16 -6 -19 3 -2 -2 -5
-10 -5 -13 0 -13 3 2 19 19 21 31 25 14 5z m800 0 c-6 -8 -9 -16 -6 -19 3 -2
-2 -5 -10 -5 -13 0 -13 3 2 19 19 21 31 25 14 5z m149 8 c0 -2 -6 -8 -13 -14
-10 -8 -14 -7 -14 2 0 8 6 14 14 14 7 0 13 -1 13 -2z m83 -13 c15 -16 15 -19
2 -19 -8 0 -13 3 -10 5 3 3 0 11 -6 19 -17 20 -5 16 14 -5z m128 5 c-6 -8 -8
-16 -5 -19 3 -3 1 -9 -4 -12 -6 -3 -9 0 -8 6 2 16 15 38 23 38 3 0 0 -6 -6
-13z m-923 -10 c8 -10 6 -13 -7 -13 -11 0 -17 6 -14 13 3 7 6 13 8 13 1 0 7
-6 13 -13z m-198 -1 c0 -2 -7 -7 -16 -10 -8 -3 -12 -2 -9 4 6 10 25 14 25 6z
m52 -21 c2 3 5 -2 5 -10 0 -10 -4 -12 -12 -5 -7 5 -16 6 -21 2 -5 -4 -6 -3 -2
2 4 5 2 16 -4 25 -10 12 -7 12 8 -2 11 -9 23 -15 26 -12z m69 12 c-6 -8 -7
-18 -3 -22 4 -5 1 -5 -6 -1 -10 6 -10 11 -1 22 6 8 14 14 16 14 3 0 0 -6 -6
-13z m679 9 c0 -2 -7 -7 -16 -10 -8 -3 -12 -2 -9 4 6 10 25 14 25 6z m47 -13
c5 3 9 -3 9 -13 0 -13 -4 -16 -12 -10 -6 6 -15 6 -20 2 -5 -4 -6 -3 -2 2 4 5
2 16 -5 25 -10 14 -10 14 5 3 9 -8 21 -11 25 -9z m74 4 c-6 -8 -9 -17 -6 -20
3 -4 2 -5 -2 -2 -3 3 -11 0 -18 -5 -8 -7 -12 -5 -12 5 0 8 4 12 8 10 3 -3 12
2 19 10 7 8 15 15 17 15 3 0 0 -6 -6 -13z m44 3 c3 -6 -1 -7 -9 -4 -18 7 -21
14 -7 14 6 0 13 -4 16 -10z m-248 -13 c0 -7 -9 -14 -19 -14 -10 -1 -18 3 -18
8 0 6 4 8 9 4 5 -3 12 -1 16 5 8 13 12 13 12 -3z m-845 -24 c-1 -4 7 -17 16
-28 17 -20 17 -20 -4 -2 -11 9 -21 24 -21 32 0 8 2 13 5 11 2 -2 4 -8 4 -13z
m243 -11 c-3 -3 -11 0 -18 7 -9 10 -8 11 6 5 10 -3 15 -9 12 -12z m691 6 c3
-4 -1 -5 -10 -4 -8 1 -18 5 -22 8 -3 4 1 5 10 4 8 -1 18 -5 22 -8z m314 6 c0
-8 -19 -13 -24 -6 -3 5 1 9 9 9 8 0 15 -2 15 -3z m-1156 -25 c-10 -12 -18 -24
-17 -28 1 -3 0 -8 -2 -9 -2 -2 -3 3 -1 11 2 16 25 47 34 47 3 0 -3 -9 -14 -21z
m88 6 c2 3 5 -2 5 -10 0 -19 0 -19 -23 7 -12 14 -13 18 -3 10 9 -6 18 -10 21
-7z m144 -45 c1 -19 -7 -36 -20 -47 -21 -18 -21 -18 -5 2 19 24 19 65 0 91
-14 18 -14 18 4 1 11 -9 20 -31 21 -47z m656 45 c2 3 5 -2 5 -10 0 -19 0 -19
-23 7 -12 14 -13 18 -3 10 9 -6 18 -10 21 -7z m68 12 c0 -2 -8 -11 -18 -20
-15 -14 -19 -15 -19 -2 0 8 4 12 8 9 4 -2 10 0 14 6 6 10 15 14 15 7z m75 -35
c-3 -3 3 -15 12 -26 18 -21 18 -21 -5 -2 -12 11 -20 21 -17 24 3 3 -3 15 -12
26 -18 21 -18 21 5 2 12 -11 20 -21 17 -24z m-320 10 c-3 -3 -11 0 -18 7 -9
10 -8 11 6 5 10 -3 15 -9 12 -12z m404 15 c-2 -1 -13 -9 -24 -17 -19 -14 -19
-14 -6 3 7 9 18 17 24 17 6 0 8 -1 6 -3z m-1079 -11 c0 -2 -8 -10 -17 -17 -16
-13 -17 -12 -4 4 13 16 21 21 21 13z m161 -13 c13 -16 12 -17 -3 -4 -10 7 -18
15 -18 17 0 8 8 3 21 -13z m85 -5 c3 -4 -1 -5 -10 -4 -8 1 -18 5 -22 8 -3 4 1
5 10 4 8 -1 18 -5 22 -8z m479 3 c-9 -8 -36 -10 -30 -2 2 4 11 8 20 8 8 0 13
-3 10 -6z m114 -25 c-3 -3 -11 5 -18 17 -13 21 -12 21 5 5 10 -10 16 -20 13
-22z m82 21 c-6 -8 -9 -16 -6 -19 3 -3 -3 -11 -12 -19 -16 -13 -17 -12 -4 4 7
9 10 17 6 17 -4 0 -2 7 5 15 7 8 15 15 17 15 3 0 0 -6 -6 -13z m44 3 c3 -6 -1
-7 -9 -4 -18 7 -21 14 -7 14 6 0 13 -4 16 -10z m-949 -20 c0 -12 -4 -16 -9
-11 -5 5 -6 14 -3 20 10 15 12 14 12 -9z m118 -10 c-6 -6 -10 -3 -10 10 0 13
4 16 10 10 7 -7 7 -13 0 -20z m-230 9 c3 -3 -10 -5 -29 -4 -18 0 -36 3 -39 6
-3 3 10 5 29 4 18 0 36 -3 39 -6z m176 -1 c0 -4 -4 -8 -9 -8 -6 0 -12 4 -15 8
-3 5 1 9 9 9 8 0 15 -4 15 -9z m670 8 c0 -2 -8 -10 -17 -17 -16 -13 -17 -12
-4 4 13 16 21 21 21 13z m131 -9 c-6 -8 -9 -16 -6 -19 3 -2 -2 -5 -10 -5 -13
0 -13 3 2 19 19 21 31 25 14 5z m209 7 c0 -8 -19 -13 -24 -6 -3 5 1 9 9 9 8 0
15 -2 15 -3z m-1078 -39 c3 3 13 -5 24 -17 19 -23 19 -23 -2 -5 -11 9 -23 15
-26 12 -3 -3 -13 5 -24 17 -19 23 -19 23 2 5 11 -9 23 -15 26 -12z m158 21 c0
-2 -8 -10 -17 -17 -16 -13 -17 -12 -4 4 13 16 21 21 21 13z m586 -14 c-9 -11
-28 -18 -44 -17 -15 1 -36 -5 -47 -14 -20 -16 -20 -16 -2 5 12 15 27 21 47 19
16 -1 35 4 41 11 6 8 14 14 17 14 3 0 -2 -8 -12 -18z m243 -16 c-3 -3 -11 5
-18 17 -13 21 -12 21 5 5 10 -10 16 -20 13 -22z m-725 -5 c-2 -3 -12 3 -22 13
-16 17 -16 18 5 5 12 -7 20 -15 17 -18z m566 26 c0 -2 -8 -11 -18 -20 -15 -14
-19 -15 -19 -2 0 8 4 12 8 9 4 -2 10 0 14 6 6 10 15 14 15 7z m97 -19 c0 -13
-1 -17 -4 -10 -3 6 -10 9 -16 5 -7 -4 -6 1 2 10 17 21 17 21 18 -5z m-966 -5
c13 -16 12 -17 -3 -4 -15 11 -21 11 -35 0 -16 -13 -17 -12 -4 4 7 9 17 17 21
17 4 0 14 -8 21 -17z m664 -14 c-3 -12 -7 -24 -10 -27 -3 -3 -3 5 -1 19 6 30
5 29 10 29 3 0 3 -10 1 -21z m203 -9 c-7 -10 -14 -17 -17 -15 -4 4 18 35 25
35 2 0 -1 -9 -8 -20z m104 -5 c9 2 23 -4 30 -13 11 -15 11 -15 -2 -6 -8 6 -23
10 -32 9 -9 -2 -25 7 -35 18 -18 22 -18 22 2 6 11 -9 28 -15 37 -14z m-926
-11 c1 -9 0 -13 -4 -10 -3 4 -7 14 -8 22 -1 9 0 13 4 10 3 -4 7 -14 8 -22z
m231 8 c-10 -10 -15 -21 -12 -24 3 -3 -5 -13 -17 -24 -23 -19 -23 -19 -7 1 9
11 15 28 14 38 -2 9 1 15 5 12 5 -3 11 -1 15 5 3 5 9 10 12 10 3 0 -1 -8 -10
-18z m453 14 c0 -2 -8 -10 -17 -17 -16 -13 -17 -12 -4 4 13 16 21 21 21 13z
m320 0 c0 -2 -8 -10 -17 -17 -16 -13 -17 -12 -4 4 13 16 21 21 21 13z m-905
-14 c-3 -3 1 -12 7 -21 10 -12 7 -12 -8 2 -11 9 -24 14 -29 10 -4 -5 -5 -3 -2
3 3 6 13 11 22 11 8 0 13 -3 10 -5z m776 -9 c13 -16 12 -17 -3 -4 -15 11 -21
11 -35 0 -16 -13 -17 -12 -4 4 7 9 17 17 21 17 4 0 14 -8 21 -17z m-739 -10
c-1 -4 7 -17 16 -28 17 -20 17 -20 -4 -2 -11 9 -21 24 -21 32 0 8 2 13 5 11 2
-2 4 -8 4 -13z m128 13 c0 -2 -8 -10 -17 -17 -16 -13 -17 -12 -4 4 13 16 21
21 21 13z m-359 -19 c-6 -8 -7 -18 -3 -22 4 -5 1 -5 -6 -1 -10 6 -10 11 -1 22
6 8 14 14 16 14 3 0 0 -6 -6 -13z m49 8 c0 -1 -10 -10 -22 -21 -14 -12 -18
-13 -10 -3 6 9 10 18 7 21 -3 2 2 5 10 5 8 0 15 -1 15 -2z m228 -12 c-12 -15
-22 -18 -14 -4 4 5 0 11 -6 14 -7 3 -3 4 9 4 17 -1 19 -4 11 -14z m608 5 c3
-4 -1 -5 -10 -4 -8 1 -18 5 -22 8 -3 4 1 5 10 4 8 -1 18 -5 22 -8z m-749 -13
c0 -8 -3 -13 -5 -10 -3 3 -12 -1 -21 -7 -10 -8 -9 -4 3 10 23 26 23 26 23 7z
m49 -7 c12 -14 13 -18 3 -10 -9 6 -18 10 -21 7 -2 -3 -5 2 -5 10 0 19 0 19 23
-7z m191 7 c0 -8 -3 -13 -5 -10 -3 3 -12 -1 -21 -7 -10 -8 -9 -4 3 10 23 26
23 26 23 7z m548 -5 c10 -11 16 -20 13 -20 -3 0 -13 9 -23 20 -10 11 -16 20
-13 20 3 0 13 -9 23 -20z m108 6 c3 3 4 -1 3 -10 -1 -8 -5 -18 -9 -21 -4 -3
-5 -2 -2 2 3 3 -3 16 -12 27 -14 15 -14 18 -2 8 9 -6 18 -9 22 -6z m-954 1
c-2 -1 -13 -9 -24 -17 -19 -14 -19 -14 -6 3 7 9 18 17 24 17 6 0 8 -1 6 -3z
m674 -15 c15 -16 15 -19 2 -19 -8 0 -13 3 -10 5 3 3 0 11 -6 19 -17 20 -5 16
14 -5z m98 1 c13 -17 13 -17 -6 -3 -11 8 -22 16 -24 17 -2 2 0 3 6 3 6 0 17
-8 24 -17z m142 -1 c15 -16 15 -19 2 -19 -8 0 -13 3 -10 5 3 3 0 11 -6 19 -17
20 -5 16 14 -5z m-912 -15 c-6 -8 -9 -17 -6 -20 3 -4 2 -5 -2 -2 -3 3 -11 0
-18 -5 -8 -7 -12 -5 -12 5 0 8 4 12 8 10 3 -3 12 2 19 10 7 8 15 15 17 15 3 0
0 -6 -6 -13z m150 -4 c13 -16 12 -17 -3 -4 -10 7 -18 15 -18 17 0 8 8 3 21
-13z m99 13 c0 -2 -8 -10 -17 -17 -16 -13 -17 -12 -4 4 13 16 21 21 21 13z
m395 -6 c3 -6 -1 -7 -9 -4 -18 7 -21 14 -7 14 6 0 13 -4 16 -10z m-701 -16 c3
-8 2 -12 -4 -9 -6 3 -10 10 -10 16 0 14 7 11 14 -7z m113 1 c0 -8 -3 -13 -5
-10 -3 3 -15 -3 -26 -12 -15 -14 -18 -14 -8 -2 6 9 8 20 4 24 -4 5 -2 5 5 1 6
-3 14 -2 18 4 9 14 12 13 12 -5z m59 3 c5 4 6 3 2 -2 -4 -5 -2 -16 4 -25 10
-12 7 -12 -8 2 -11 9 -23 15 -26 12 -2 -3 -5 2 -5 10 0 10 4 12 12 5 7 -5 16
-6 21 -2z m602 -13 c-3 -3 -9 2 -12 12 -6 14 -5 15 5 6 7 -7 10 -15 7 -18z
m-517 2 c-6 -8 -9 -16 -6 -19 3 -3 -5 -13 -17 -24 l-23 -19 19 23 c11 12 16
22 11 22 -4 0 -2 7 5 15 7 8 15 15 17 15 3 0 0 -6 -6 -13z m69 9 c0 -2 -8 -10
-17 -17 -16 -13 -17 -12 -4 4 13 16 21 21 21 13z m700 0 c0 -2 -8 -10 -17 -17
-16 -13 -17 -12 -4 4 13 16 21 21 21 13z m-805 -26 c-3 -5 -12 -10 -18 -10 -7
0 -6 4 3 10 19 12 23 12 15 0z m113 -10 c-7 -10 -14 -17 -17 -15 -4 4 18 35
25 35 2 0 -1 -9 -8 -20z m357 12 c-3 -3 3 -15 12 -26 14 -15 14 -18 2 -8 -9 6
-20 8 -25 4 -5 -4 -6 -3 -2 2 4 5 3 14 -2 21 -7 8 -5 12 5 12 8 0 13 -3 10 -5z
m40 0 c-3 -3 0 -11 6 -19 17 -20 5 -16 -14 5 -15 16 -15 19 -2 19 8 0 13 -3
10 -5z m120 0 c-3 -3 3 -15 12 -26 14 -15 14 -18 2 -8 -9 6 -20 8 -25 4 -5 -4
-6 -3 -2 2 4 5 3 14 -2 21 -7 8 -5 12 5 12 8 0 13 -3 10 -5z m40 0 c-3 -3 0
-11 6 -19 17 -20 5 -16 -14 5 -15 16 -15 19 -2 19 8 0 13 -3 10 -5z m40 0 c-3
-3 3 -15 12 -26 14 -15 14 -18 2 -8 -9 6 -20 8 -25 4 -5 -4 -6 -3 -2 2 4 5 3
14 -2 21 -7 8 -5 12 5 12 8 0 13 -3 10 -5z m48 -9 c-4 -10 -9 -11 -19 -2 -18
15 -18 15 5 15 11 0 17 -5 14 -13z m-867 -12 c0 -11 -5 -17 -13 -14 -10 4 -11
9 -2 19 15 18 15 18 15 -5z m50 -3 c12 -14 13 -18 3 -10 -9 6 -18 10 -21 7 -2
-3 -5 2 -5 10 0 19 0 19 23 -7z m240 0 c12 -14 13 -18 3 -10 -9 6 -18 10 -21
7 -2 -3 -5 2 -5 10 0 19 0 19 23 -7z m604 8 c0 -2 -8 -10 -17 -17 -16 -13 -17
-12 -4 4 13 16 21 21 21 13z m-919 -33 c13 -16 12 -17 -3 -4 -17 13 -22 21
-14 21 2 0 10 -8 17 -17z m85 -5 c5 4 6 3 2 -2 -4 -5 -2 -16 4 -25 10 -12 7
-12 -8 2 -11 9 -23 15 -26 12 -2 -3 -5 2 -5 10 0 10 4 12 12 5 7 -5 16 -6 21
-2z m159 -26 c-3 -3 3 -15 12 -26 18 -21 18 -21 -5 -2 -12 11 -20 21 -17 24 3
3 -3 15 -12 26 -18 21 -18 21 5 2 12 -11 20 -21 17 -24z m80 26 c5 4 5 1 1 -6
-6 -10 -11 -10 -22 -1 -8 6 -14 14 -14 16 0 3 6 0 13 -6 8 -6 18 -7 22 -3z
m261 -14 c1 -9 0 -13 -4 -10 -3 4 -7 14 -8 22 -1 9 0 13 4 10 3 -4 7 -14 8
-22z m85 9 c13 -16 12 -17 -3 -4 -10 7 -18 15 -18 17 0 8 8 3 21 -13z m173 5
c4 4 6 0 4 -8 -2 -9 3 -14 12 -12 8 2 11 0 7 -4 -4 -4 -15 -9 -23 -10 -9 -1
-13 0 -10 3 3 4 -2 16 -11 27 -14 15 -14 18 -2 8 9 -6 19 -8 23 -4z m-197 -22
c18 -21 18 -21 -3 -3 -16 13 -23 15 -26 6 -3 -9 -6 -9 -10 2 -9 23 19 19 39
-5z m73 20 c0 -2 -8 -10 -17 -17 -16 -13 -17 -12 -4 4 13 16 21 21 21 13z m86
-18 c14 -17 15 -20 2 -9 -9 7 -22 10 -27 6 -7 -3 -8 0 -5 9 8 20 7 20 30 -6z
m-671 -8 c-3 -5 -12 -10 -18 -10 -7 0 -6 4 3 10 19 12 23 12 15 0z m45 5 c0
-1 -10 -10 -22 -21 -14 -12 -18 -13 -10 -3 6 9 10 18 7 21 -3 2 2 5 10 5 8 0
15 -1 15 -2z m35 -5 c3 -6 -1 -7 -9 -4 -18 7 -21 14 -7 14 6 0 13 -4 16 -10z
m81 -2 c3 -4 -1 -5 -10 -4 -8 1 -18 5 -22 8 -3 4 1 5 10 4 8 -1 18 -5 22 -8z
m238 4 c2 -4 -4 -8 -14 -8 -10 0 -16 4 -14 8 3 4 9 8 14 8 5 0 11 -4 14 -8z
m191 -12 c-10 -11 -20 -18 -23 -15 -3 3 -12 -1 -21 -8 -14 -11 -14 -10 -2 5 7
10 17 16 21 13 4 -3 13 2 20 10 7 8 15 15 18 15 3 0 -3 -9 -13 -20z m-656 -3
c8 -10 7 -14 -2 -14 -8 0 -14 6 -14 14 0 7 1 13 2 13 2 0 8 -6 14 -13z m513
-2 c2 3 5 -2 5 -10 0 -19 0 -19 -23 7 -12 14 -13 18 -3 10 9 -6 18 -10 21 -7z
m-382 1 c0 -2 -8 -10 -17 -17 -16 -13 -17 -12 -4 4 13 16 21 21 21 13z m131
-9 c-6 -8 -9 -16 -6 -19 3 -2 -2 -5 -10 -5 -13 0 -13 3 2 19 19 21 31 25 14 5z
m309 8 c0 -2 -6 -8 -13 -14 -10 -8 -14 -7 -14 2 0 8 6 14 14 14 7 0 13 -1 13
-2z m160 0 c0 -2 -6 -8 -13 -14 -10 -8 -14 -7 -14 2 0 8 6 14 14 14 7 0 13 -1
13 -2z m-705 -25 c-4 -6 -1 -19 6 -28 12 -16 12 -16 -5 0 -16 14 -15 38 0 38
3 0 2 -5 -1 -10z m275 6 c0 -2 -7 -7 -16 -10 -8 -3 -12 -2 -9 4 6 10 25 14 25
6z m39 -30 c-3 -3 -11 5 -18 17 -13 21 -12 21 5 5 10 -10 16 -20 13 -22z m118
17 c0 -9 -4 -10 -14 -2 -7 6 -13 12 -13 14 0 1 6 2 13 2 8 0 14 -6 14 -14z
m55 -8 c2 3 5 -2 5 -10 0 -19 1 -20 -28 12 -17 20 -18 23 -3 10 11 -9 23 -15
26 -12z m65 7 c-17 -18 -51 -27 -41 -10 3 5 9 6 14 3 4 -3 13 2 20 10 7 8 15
15 18 15 3 0 -2 -8 -11 -18z m-438 -5 c-2 -2 -11 -8 -20 -15 -12 -9 -16 -9
-16 1 0 7 9 14 20 14 11 1 18 1 16 0z m172 -14 c13 -16 12 -17 -3 -4 -10 7
-18 15 -18 17 0 8 8 3 21 -13z m299 13 c0 -2 -8 -10 -17 -17 -16 -13 -17 -12
-4 4 13 16 21 21 21 13z m46 -21 c-1 -8 -5 -17 -8 -21 -5 -4 -4 16 1 34 3 9 9
-1 7 -13z m-481 -3 c-3 -3 0 -11 6 -19 17 -20 5 -16 -14 5 -15 16 -15 19 -2
19 8 0 13 -3 10 -5z m40 0 c-3 -3 3 -15 12 -26 14 -15 14 -18 2 -8 -9 6 -20 8
-25 4 -5 -4 -6 -3 -2 2 4 5 3 14 -2 21 -7 8 -5 12 5 12 8 0 13 -3 10 -5z m47
1 c-6 -3 -9 -10 -5 -16 4 -7 -1 -6 -10 2 -21 17 -21 17 6 18 12 0 16 -1 9 -4z
m155 -11 c-17 -18 -51 -27 -41 -10 3 5 9 6 14 3 4 -3 13 2 20 10 7 8 15 15 18
15 3 0 -2 -8 -11 -18z m101 -8 c9 -2 23 3 32 9 13 10 13 10 2 -5 -17 -22 -48
-19 -70 6 -16 20 -16 20 2 6 10 -8 25 -15 34 -16z m-367 -11 c13 -17 13 -17
-6 -3 -11 8 -22 16 -24 17 -2 2 0 3 6 3 6 0 17 -8 24 -17z m148 14 c-2 -1 -13
-9 -24 -17 -19 -14 -19 -14 -6 3 7 9 18 17 24 17 6 0 8 -1 6 -3z m12 -20 c-10
-9 -11 -8 -5 6 3 10 9 15 12 12 3 -3 0 -11 -7 -18z m270 10 c-6 -8 -9 -16 -6
-19 3 -2 -2 -5 -10 -5 -13 0 -13 3 2 19 19 21 31 25 14 5z m-185 -37 c0 -12
-4 -16 -9 -11 -5 5 -6 14 -3 20 10 15 12 14 12 -9z m120 -6 c1 -9 0 -13 -4
-10 -3 4 -7 14 -8 22 -1 9 0 13 4 10 3 -4 7 -14 8 -22z m-285 -7 c-10 -9 -11
-8 -5 6 3 10 9 15 12 12 3 -3 0 -11 -7 -18z m224 -31 c0 -30 -2 -53 -4 -50 -8
7 -9 104 -2 104 4 0 6 -24 6 -54z m-309 22 c3 -4 -1 -5 -10 -4 -8 1 -18 5 -22
8 -3 4 1 5 10 4 8 -1 18 -5 22 -8z m32 -8 c-7 -10 -14 -17 -17 -15 -4 4 18 35
25 35 2 0 -1 -9 -8 -20z m116 12 c3 -5 -1 -9 -9 -9 -8 0 -12 4 -9 9 3 4 7 8 9
8 2 0 6 -4 9 -8z m205 -26 c-3 -3 -11 5 -18 17 -13 21 -12 21 5 5 10 -10 16
-20 13 -22z m-239 21 c0 -2 -8 -11 -18 -20 -15 -14 -19 -15 -19 -2 0 8 4 12 8
9 4 -2 10 0 14 6 6 10 15 14 15 7z m157 -31 c18 -21 18 -21 -3 -3 -11 9 -23
14 -26 11 -3 -3 -8 -1 -12 4 -11 18 25 8 41 -12z m-147 0 c0 -2 -8 -10 -17
-17 -16 -13 -17 -12 -4 4 13 16 21 21 21 13z m43 -21 c-3 -9 -8 -14 -10 -11
-3 3 -2 9 2 15 9 16 15 13 8 -4z m65 -35 c-7 -10 -14 -17 -17 -15 -4 4 18 35
25 35 2 0 -1 -9 -8 -20z m-59 -3 c8 -10 7 -14 -2 -14 -8 0 -14 6 -14 14 0 7 1
13 2 13 2 0 8 -6 14 -13z"/>
<path d="M356 1614 c-9 -24 -7 -76 3 -70 5 4 7 -4 3 -16 -3 -13 -1 -19 5 -15
7 5 9 0 6 -12 -3 -10 0 -22 6 -25 5 -4 8 -13 4 -21 -3 -9 1 -15 10 -15 9 0 18
-4 21 -9 3 -5 -2 -8 -12 -7 -10 0 -16 -5 -13 -14 2 -8 3 -26 4 -40 0 -22 3
-19 18 15 11 22 17 48 15 58 -2 9 -1 15 4 12 4 -3 11 2 14 11 11 28 6 57 -11
78 -17 20 -17 20 0 7 15 -12 17 -11 17 6 0 27 -10 35 -29 21 -13 -10 -14 -10
-3 2 18 21 15 27 -19 39 -39 14 -36 14 -43 -5z m54 -8 c0 -2 -8 -10 -17 -17
-16 -13 -17 -12 -4 4 13 16 21 21 21 13z m11 -123 c12 -16 12 -17 -2 -6 -9 7
-19 10 -22 6 -4 -3 -7 -1 -7 5 0 17 16 15 31 -5z"/>
<path d="M1651 1621 c-13 -8 -13 -12 -1 -28 14 -17 14 -17 -6 0 -20 17 -21 16
-32 -7 -8 -17 -7 -27 1 -36 9 -10 9 -11 -2 -5 -10 6 -12 -1 -8 -36 3 -24 6
-48 6 -52 1 -5 5 -6 10 -2 6 3 8 -4 6 -15 -2 -11 1 -20 6 -20 6 0 8 -3 6 -7
-3 -5 1 -21 9 -38 l13 -30 -3 42 c-2 23 1 40 6 37 7 -4 9 7 8 54 0 4 -13 7
-30 6 -16 0 -27 3 -25 7 3 3 19 5 36 4 25 -2 32 2 40 23 5 14 8 31 5 39 -3 7
-1 13 3 13 12 0 1 43 -13 52 -14 10 -18 10 -35 -1z m34 -11 c3 -5 1 -10 -4
-10 -6 0 -11 5 -11 10 0 6 2 10 4 10 3 0 8 -4 11 -10z m-40 -58 c-3 -3 3 -15
12 -26 18 -21 18 -21 -5 -2 -12 11 -20 21 -17 24 3 3 -1 12 -8 21 -11 14 -10
14 6 2 9 -8 15 -16 12 -19z m36 -9 c13 -16 12 -17 -3 -4 -10 7 -18 15 -18 17
0 8 8 3 21 -13z"/>
<path d="M465 1466 c-11 -8 -16 -19 -12 -30 4 -10 3 -15 -3 -11 -6 3 -10 -3
-10 -15 0 -14 4 -19 12 -14 6 4 4 -3 -5 -17 -20 -28 -24 -84 -4 -73 6 4 5 -1
-4 -12 -21 -24 -31 -118 -11 -102 7 6 10 18 7 27 -3 8 -3 12 1 8 9 -9 65 73
58 85 -3 4 -1 8 3 8 15 0 34 41 38 85 4 37 1 47 -17 60 -27 18 -29 18 -53 1z
m25 -20 c-7 -7 -13 -7 -20 0 -6 6 -3 10 10 10 13 0 16 -4 10 -10z m40 -5 c0
-5 -7 -12 -16 -15 -14 -5 -15 -4 -4 9 14 17 20 19 20 6z m-50 -65 c0 -2 -8
-10 -17 -17 -16 -13 -17 -12 -4 4 13 16 21 21 21 13z m20 -20 c0 -2 -8 -10
-17 -17 -16 -13 -17 -12 -4 4 13 16 21 21 21 13z"/>
<path d="M1550 1470 c0 -5 -3 -9 -7 -7 -5 1 -9 -2 -10 -7 -1 -5 -7 -12 -13
-16 -21 -13 -3 -69 49 -159 66 -111 73 -117 65 -56 -4 28 -11 55 -16 62 -5 7
-5 14 2 18 7 4 7 12 0 24 -5 10 -7 21 -4 24 3 3 3 15 -1 27 -6 18 -9 19 -23 8
-14 -11 -14 -10 1 8 22 26 21 36 -2 62 -19 23 -41 29 -41 12z m20 -24 c0 -2
-8 -10 -17 -17 -16 -13 -17 -12 -4 4 13 16 21 21 21 13z m20 -20 c0 -2 -8 -10
-17 -17 -16 -13 -17 -12 -4 4 13 16 21 21 21 13z m-20 -40 c0 -2 -6 -9 -14
-15 -11 -9 -16 -9 -22 0 -4 7 -3 9 4 5 6 -3 13 -2 17 4 6 10 15 14 15 6z m40
-26 c0 -5 -2 -10 -4 -10 -3 0 -8 5 -11 10 -3 6 -1 10 4 10 6 0 11 -4 11 -10z
m0 -34 c0 -2 -8 -10 -17 -17 -16 -13 -17 -12 -4 4 13 16 21 21 21 13z"/>
<path d="M665 1453 c-70 -8 -72 -10 -79 -60 -3 -25 -20 -70 -36 -100 -37 -66
-38 -80 -1 -88 41 -9 98 -62 156 -143 28 -40 54 -72 58 -72 5 0 6 3 4 8 -3 4
-8 48 -12 97 -3 50 -8 101 -10 115 -2 14 -7 62 -10 108 -6 67 -4 87 9 107 9
13 16 27 16 30 0 5 -44 5 -95 -2z"/>
<path d="M886 1444 c-109 -21 -111 -25 -97 -186 7 -73 14 -151 16 -173 3 -22
7 -64 10 -94 2 -31 21 -92 43 -145 22 -50 56 -148 77 -217 37 -127 70 -199 92
-206 15 -5 67 104 87 182 26 103 54 184 90 260 25 52 36 93 41 146 3 41 8 92
10 114 2 22 7 81 10 130 4 50 9 102 11 117 5 31 -18 51 -77 69 -55 17 -237 19
-313 3z"/>
<path d="M1310 1424 c12 -22 18 -50 15 -68 -4 -31 -15 -145 -20 -201 -1 -16
-6 -64 -9 -105 l-7 -75 54 76 c30 42 63 86 73 98 21 25 85 61 109 61 22 0 19
14 -19 85 -19 36 -37 83 -41 105 -4 22 -10 42 -13 44 -4 2 -42 7 -84 11 l-77
7 19 -38z"/>
</g>
</svg>
